<?xml version="1.0" encoding="utf-8" ?>
<svg xmlns="http://www.w3.org/2000/svg" xmlns:xlink="http://www.w3.org/1999/xlink" width="1024" height="1024">
	<path fill="#34D399" d="M335.728 176.233Q343.739 176.102 351.732 176.643Q359.726 177.184 367.646 178.393C417.493 185.9 461.609 212.884 494.819 250.352C501.132 257.475 506.756 265.094 512.41 272.742C523.356 256.851 536.649 241.487 551.061 228.63Q552.908 226.974 554.794 225.364Q556.681 223.754 558.606 222.19Q560.531 220.627 562.494 219.111Q564.457 217.595 566.457 216.127Q568.456 214.66 570.491 213.242Q572.526 211.823 574.595 210.455Q576.664 209.087 578.765 207.77Q580.867 206.453 583 205.188Q585.133 203.923 587.297 202.71Q589.46 201.497 591.653 200.338Q593.846 199.178 596.066 198.073Q598.286 196.967 600.533 195.916Q602.779 194.866 605.051 193.87Q607.323 192.874 609.618 191.935Q611.913 190.995 614.231 190.111Q616.548 189.228 618.887 188.401Q621.225 187.575 623.583 186.806Q625.941 186.037 628.317 185.326Q630.693 184.615 633.086 183.962Q635.479 183.309 637.887 182.715Q640.295 182.121 642.717 181.586Q645.139 181.05 647.573 180.575Q650.007 180.099 652.452 179.683Q654.897 179.267 657.352 178.911Q659.806 178.555 662.269 178.259Q664.731 177.963 667.2 177.727Q669.669 177.491 672.143 177.316Q674.617 177.141 677.095 177.026Q679.573 176.911 682.052 176.857Q684.532 176.803 687.012 176.809Q689.492 176.816 691.972 176.883Q694.451 176.95 696.928 177.078C750.724 180.215 797.118 204.012 832.754 244.091C869.608 285.54 888.688 343.068 885.386 398.236C883.563 428.699 874.53 458.359 862.556 486.262C820.355 584.607 742.357 658.404 663.671 727.988Q611.902 772.248 558.416 814.417C543.042 826.609 528.011 839.937 511.927 851.113C489.525 833.893 467.559 815.883 445.527 798.18Q371.035 739.409 301.659 674.677C224.255 601.28 141.603 500.489 138.766 388.559C137.371 333.546 158.961 276.204 196.95 236.316C233.685 197.743 282.804 177.527 335.728 176.233ZM333.311 181.223C280.733 183.686 233.277 203.663 197.551 242.869C161.875 282.02 141.297 339.818 143.795 392.716C149.515 513.852 246.734 618.487 331.792 695.728C389.635 748.255 451.907 795.27 511.984 845.091C527.833 831.63 544.443 819.026 560.734 806.105Q593.504 780.042 625.81 753.406C639.248 742.337 653.308 731.457 665.898 719.437Q699.555 690.696 730.924 659.475C782.749 607.825 829.556 550.815 858.518 483.008C869.345 457.661 877.69 431.273 880.003 403.685C884.531 349.676 867.181 292.237 831.989 250.713C798.295 210.956 753.318 186.359 701.14 182.177C648.425 177.952 596.246 196.5 556.253 230.623C538.599 245.686 524.594 262.423 512.178 281.981C484.079 236.233 436.347 199.202 383.83 186.592C367.436 182.655 350.183 180.395 333.311 181.223Z"/>
</svg>
