<?xml version="1.0" encoding="utf-8" ?>
<svg xmlns="http://www.w3.org/2000/svg" xmlns:xlink="http://www.w3.org/1999/xlink" width="1024" height="1024">
	<path fill="#34D399" d="M492.998 146.237Q509.317 146.155 525.635 146.274C532.886 146.31 540.476 145.923 547.65 147.059C559.774 148.979 570.117 155.638 577.264 165.581C581.779 171.861 584.368 178.89 585.128 186.572C585.815 193.533 585.554 200.627 585.536 207.615L585.477 238.076L585.411 339.61L585.459 408.827C585.465 417.243 586.414 431.989 585.122 439.728C644.852 440.38 704.663 439.89 764.399 439.793L812.567 439.663C822.516 439.632 833.241 438.88 843.066 440.456C850.916 441.715 857.717 445.217 863.442 450.693C873.299 460.12 877.191 471.604 877.464 485.01C877.673 495.246 877.415 505.525 877.447 515.766C877.508 535.3 879.283 555.594 864.419 570.714Q863.242 571.907 861.974 573.003Q860.706 574.099 859.355 575.09Q858.004 576.081 856.578 576.962Q855.153 577.843 853.661 578.607Q852.17 579.372 850.623 580.015Q849.076 580.659 847.482 581.177Q845.888 581.695 844.259 582.085Q842.629 582.475 840.973 582.734C831.539 584.305 821.37 583.561 811.821 583.551L767.45 583.589C706.821 583.649 646.109 582.764 585.491 583.712C585.849 604.868 585.51 626.085 585.506 647.247L585.628 757.232L585.632 810.581C585.627 820.153 586.461 830.624 584.958 840.052C583.595 848.606 579.345 857.579 573.302 863.812C562.307 875.151 548.055 877.98 532.895 878.161L502.352 878.2C483.347 878.203 466.601 878.56 452.099 864.271C446.273 858.531 441.745 850.934 440.275 842.828C438.479 832.919 439.335 821.943 439.353 811.861L439.482 760.553L439.466 583.062C424.299 583.36 409.047 583.044 393.874 582.986L310.787 582.735C271.119 582.696 231.21 583.835 191.575 582.592C178.238 582.174 167.013 578.531 157.724 568.541Q156.904 567.668 156.141 566.745Q155.378 565.822 154.675 564.851Q153.973 563.881 153.334 562.868Q152.695 561.855 152.122 560.803Q151.548 559.751 151.044 558.665Q150.539 557.579 150.105 556.462Q149.671 555.346 149.308 554.204Q148.946 553.063 148.658 551.9C145.98 541.03 147.489 524.867 147.503 513.507C147.517 502.618 147.02 491.576 147.546 480.704C148.097 469.319 152.574 458.236 161.167 450.573Q162.299 449.549 163.503 448.612Q164.708 447.676 165.979 446.83Q167.249 445.985 168.579 445.237Q169.909 444.488 171.29 443.84Q172.672 443.192 174.098 442.649Q175.524 442.105 176.986 441.668Q178.448 441.232 179.939 440.905Q181.429 440.578 182.94 440.362C194.622 438.707 207.403 439.731 219.211 439.777L283.256 439.869L388.756 439.866C405.553 439.86 422.842 438.886 439.583 439.805L439.562 262.792L439.498 212.997C439.485 203.172 438.726 192.574 440.298 182.879C441.701 174.23 445.325 166.509 451.476 160.216C463.541 147.869 476.609 146.472 492.998 146.237ZM480.197 149.683C468.558 151.143 458.288 156.216 450.942 165.549C446.179 171.601 443.899 178.03 442.97 185.609C441.609 196.707 442.39 208.613 442.395 219.809L442.425 281.069L442.43 386.454C442.418 405.319 441.904 424.317 442.523 443.168L262.28 443.14L212.245 443.019C202.795 442.982 192.48 442.162 183.152 443.601Q181.674 443.814 180.218 444.145Q178.761 444.475 177.336 444.921Q175.911 445.367 174.526 445.925Q173.141 446.484 171.805 447.151Q170.469 447.819 169.191 448.591Q167.913 449.363 166.7 450.234Q165.488 451.106 164.349 452.072Q163.21 453.038 162.152 454.092C148.233 467.949 150.649 488.685 150.606 506.638C150.579 517.317 150.346 528.009 150.443 538.686C150.547 550.004 153.607 559.776 161.901 567.756Q163.039 568.843 164.258 569.838Q165.476 570.833 166.768 571.731Q168.06 572.629 169.418 573.424Q170.776 574.219 172.191 574.907Q173.606 575.595 175.07 576.171Q176.534 576.747 178.038 577.208Q179.543 577.67 181.078 578.013Q182.614 578.356 184.171 578.58C194.9 580.229 206.388 579.5 217.226 579.488L269.613 579.433L442.786 579.511C441.957 598.683 442.502 618.099 442.516 637.292L442.606 743.171L442.499 805.003C442.479 816.447 441.522 828.794 443.274 840.075Q443.511 841.529 443.854 842.962Q444.196 844.394 444.642 845.798Q445.088 847.202 445.636 848.57Q446.183 849.938 446.828 851.262Q447.474 852.586 448.214 853.859Q448.955 855.133 449.786 856.349Q450.617 857.565 451.535 858.717Q452.453 859.87 453.452 860.952C462.029 870.337 472.971 874.364 485.485 874.858C495.359 875.248 505.354 874.943 515.24 874.91C525.513 874.875 535.823 875.133 546.069 874.293C558.127 871.696 569.084 865.964 575.977 855.362C579.706 849.626 581.399 842.919 582.014 836.16C583.445 820.446 582.459 802.742 582.458 786.871L582.434 693.259L582.427 617.052C582.432 606.013 583.372 590.562 582.143 579.928L761.774 579.877L811.597 579.903C821.282 579.906 831.65 580.643 841.217 579.096Q842.724 578.856 844.207 578.5Q845.691 578.144 847.142 577.673Q848.594 577.203 850.004 576.62Q851.414 576.038 852.775 575.347Q854.135 574.657 855.438 573.862Q856.741 573.068 857.977 572.174Q859.214 571.281 860.378 570.294Q861.541 569.307 862.624 568.232C875.152 555.752 874.546 538.506 874.487 522.128L874.398 497.847C874.312 481.746 874.361 466.813 862.187 454.663C856.857 449.344 849.272 445.129 841.807 443.879C832.016 442.239 821.267 443.059 811.346 443.108L763.41 443.298L594.037 443.176Q587.987 443.205 581.942 443.467L582.014 264.522L582.188 215.9C582.238 205.144 583.052 193.682 581.232 183.071C579.867 175.115 575.632 167.724 569.992 162.025C556.84 148.738 541.883 149.416 524.425 149.403L496.05 149.413C490.884 149.421 485.306 149.05 480.197 149.683Z"/>
</svg>
