<?xml version="1.0" encoding="utf-8" ?>
<svg xmlns="http://www.w3.org/2000/svg" xmlns:xlink="http://www.w3.org/1999/xlink" width="1024" height="1024">
	<path fill="#A1A1AA" d="M765.654 160.704Q768.104 160.577 770.553 160.718Q773.003 160.859 775.422 161.268Q777.841 161.676 780.201 162.346Q782.561 163.017 784.833 163.941C795.788 168.425 804.226 177.432 808.626 188.357C810.562 193.166 811.32 198.597 811.511 203.751C811.922 214.872 811.583 226.122 811.587 237.254L811.591 300.447L811.849 469.952L811.645 605.935L811.607 651.68C811.589 660.499 811.796 669.397 811.314 678.204C810.62 690.888 808.634 703.268 803.565 714.994Q803.117 716.052 802.642 717.098Q802.167 718.144 801.666 719.178Q801.165 720.212 800.638 721.233Q800.111 722.253 799.558 723.261Q799.006 724.268 798.428 725.261Q797.851 726.254 797.248 727.232Q796.646 728.211 796.019 729.173Q795.392 730.136 794.741 731.083Q794.09 732.029 793.415 732.959Q792.74 733.889 792.043 734.802Q791.345 735.714 790.624 736.609Q789.904 737.504 789.161 738.381Q788.418 739.257 787.653 740.114Q786.888 740.972 786.102 741.809Q785.316 742.647 784.509 743.465Q783.702 744.283 782.875 745.08Q782.048 745.877 781.201 746.653Q780.354 747.429 779.487 748.184Q778.621 748.938 777.736 749.671Q776.851 750.403 775.948 751.113Q775.044 751.823 774.123 752.51Q773.203 753.197 772.265 753.861Q771.327 754.524 770.373 755.164Q769.418 755.804 768.448 756.419Q767.478 757.035 766.493 757.626Q765.508 758.216 764.508 758.782Q763.508 759.348 762.494 759.889Q761.48 760.429 760.453 760.944Q759.426 761.459 758.387 761.948Q757.347 762.437 756.295 762.899Q755.244 763.361 754.181 763.797Q753.118 764.233 752.044 764.642C731.191 772.774 706.544 771.163 686.236 762.194Q685.258 761.768 684.291 761.319Q683.324 760.869 682.368 760.396Q681.412 759.922 680.469 759.425Q679.525 758.928 678.594 758.408Q677.663 757.887 676.745 757.344Q675.827 756.801 674.923 756.235Q674.019 755.669 673.129 755.081Q672.239 754.493 671.364 753.883Q670.489 753.273 669.63 752.642Q668.77 752.01 667.926 751.358Q667.083 750.705 666.256 750.032Q665.428 749.359 664.618 748.665Q663.808 747.972 663.015 747.258Q662.222 746.545 661.447 745.812Q660.672 745.079 659.916 744.327Q659.159 743.575 658.422 742.805Q657.684 742.034 656.966 741.246Q656.247 740.458 655.549 739.652Q654.85 738.846 654.172 738.023Q653.494 737.199 652.836 736.36Q652.178 735.52 651.541 734.665Q650.905 733.809 650.289 732.938Q649.674 732.066 649.08 731.18Q648.487 730.294 647.916 729.394Q647.344 728.493 646.795 727.578Q646.246 726.664 645.72 725.736Q645.194 724.808 644.691 723.868Q644.189 722.927 643.709 721.974Q643.23 721.021 642.774 720.057Q642.318 719.093 641.887 718.117Q641.455 717.142 641.048 716.156Q640.641 715.171 640.258 714.175Q639.887 713.187 639.541 712.19Q639.195 711.193 638.873 710.188Q638.552 709.183 638.255 708.17Q637.958 707.157 637.687 706.137Q637.415 705.117 637.169 704.091Q636.922 703.065 636.701 702.033Q636.48 701.001 636.285 699.964Q636.089 698.927 635.92 697.885Q635.75 696.843 635.606 695.798Q635.462 694.752 635.344 693.704Q635.225 692.655 635.133 691.604Q635.041 690.552 634.974 689.499Q634.908 688.446 634.867 687.391Q634.827 686.336 634.813 685.281Q634.798 684.226 634.81 683.171Q634.822 682.115 634.859 681.06Q634.897 680.006 634.961 678.952Q635.024 677.899 635.114 676.847Q635.204 675.796 635.319 674.747Q635.435 673.698 635.576 672.652Q635.718 671.606 635.885 670.564Q636.052 669.522 636.245 668.484Q636.438 667.447 636.656 666.414Q636.875 665.382 637.118 664.355Q637.362 663.328 637.631 662.307Q637.9 661.287 638.194 660.273Q638.488 659.26 638.807 658.254Q639.126 657.248 639.47 656.25Q639.814 655.252 640.182 654.263Q640.55 653.274 640.943 652.294Q641.335 651.315 641.752 650.345Q642.169 649.375 642.609 648.416C652.306 627.179 669.275 611.756 691.128 603.701Q692.141 603.33 693.163 602.984Q694.185 602.638 695.216 602.318Q696.246 601.997 697.284 601.703Q698.322 601.408 699.367 601.14Q700.412 600.871 701.463 600.628Q702.515 600.386 703.572 600.169Q704.629 599.953 705.691 599.763Q706.753 599.573 707.82 599.41Q708.886 599.246 709.957 599.109Q711.027 598.972 712.1 598.862Q713.174 598.752 714.25 598.669Q715.325 598.585 716.403 598.529Q717.48 598.472 718.559 598.442Q719.638 598.412 720.717 598.409Q721.796 598.406 722.874 598.43Q723.953 598.454 725.031 598.505Q726.109 598.556 727.185 598.633Q728.261 598.711 729.335 598.815Q730.409 598.919 731.48 599.05Q732.551 599.181 733.619 599.339Q734.686 599.496 735.749 599.68Q736.812 599.865 737.871 600.075Q738.929 600.286 739.982 600.522Q741.034 600.759 742.081 601.022Q743.127 601.285 744.167 601.574Q745.206 601.863 746.239 602.177Q747.271 602.492 748.295 602.832Q749.319 603.172 750.334 603.538Q751.349 603.904 752.355 604.294Q753.361 604.685 754.356 605.101Q755.352 605.517 756.337 605.957Q757.322 606.397 758.296 606.862C783.505 618.697 797.325 640.028 806.469 665.442L806.743 434.723C806.793 392.356 807.218 349.953 806.758 307.59C791.934 310.548 777.216 314.254 762.466 317.577L690.969 333.388L407.264 396.594C391.391 400.101 375.5 403.919 359.495 406.775C360.093 432.308 359.533 457.989 359.521 483.536L359.523 631.75L359.642 722.782C359.72 740.942 360.647 759.332 359.328 777.453Q359.069 781.343 358.5 785.199Q357.932 789.055 357.057 792.854Q356.183 796.653 355.008 800.37Q353.833 804.087 352.365 807.698Q351.963 808.691 351.537 809.674Q351.112 810.656 350.662 811.628Q350.212 812.6 349.738 813.561Q349.264 814.521 348.767 815.47Q348.269 816.419 347.749 817.355Q347.228 818.291 346.685 819.214Q346.142 820.137 345.576 821.046Q345.01 821.956 344.422 822.851Q343.833 823.746 343.223 824.626Q342.613 825.506 341.982 826.371Q341.35 827.236 340.697 828.086Q340.045 828.935 339.371 829.768Q338.698 830.601 338.004 831.417Q337.31 832.233 336.597 833.032Q335.883 833.83 335.15 834.611Q334.417 835.392 333.665 836.155Q332.913 836.917 332.142 837.661Q331.372 838.405 330.583 839.13Q329.794 839.854 328.988 840.56Q328.182 841.265 327.358 841.95Q326.535 842.635 325.695 843.299Q324.855 843.963 323.999 844.607Q323.143 845.251 322.271 845.873Q321.399 846.495 320.512 847.096Q319.625 847.696 318.724 848.275Q317.823 848.854 316.907 849.41Q315.992 849.966 315.063 850.5Q314.135 851.033 313.193 851.544Q312.251 852.054 311.298 852.541Q310.344 853.028 309.378 853.492Q308.413 853.955 307.436 854.395Q306.459 854.835 305.472 855.25C284.232 864.057 260.952 864.226 239.764 855.306C217.975 846.132 200.978 829.762 192.045 807.739Q191.633 806.732 191.246 805.715Q190.859 804.699 190.497 803.673Q190.135 802.647 189.799 801.613Q189.462 800.578 189.152 799.536Q188.841 798.493 188.555 797.443Q188.27 796.394 188.011 795.337Q187.752 794.281 187.519 793.218Q187.286 792.156 187.079 791.088Q186.872 790.02 186.691 788.947Q186.511 787.874 186.357 786.797Q186.203 785.72 186.075 784.64Q185.947 783.56 185.847 782.476Q185.746 781.393 185.672 780.308Q185.597 779.223 185.55 778.136Q185.502 777.049 185.482 775.961Q185.461 774.874 185.467 773.786Q185.473 772.698 185.506 771.611Q185.539 770.523 185.599 769.437Q185.658 768.351 185.745 767.267Q185.831 766.182 185.944 765.1Q186.057 764.018 186.197 762.94Q186.337 761.861 186.503 760.786Q186.669 759.711 186.861 758.64Q187.054 757.569 187.273 756.504Q187.492 755.438 187.737 754.378Q187.982 753.318 188.253 752.265Q188.524 751.211 188.821 750.165Q189.118 749.118 189.441 748.079Q189.763 747.04 190.111 746.01Q190.459 744.979 190.833 743.958Q191.206 742.936 191.604 741.923Q192.003 740.911 192.426 739.909C201.437 718.911 219.573 701.879 240.72 693.42C261.481 685.116 285.744 685.043 306.307 694.033C329.551 704.194 345.988 724.754 355.07 747.985Q354.945 746.974 354.859 745.958C354.023 736.09 354.526 725.839 354.533 715.929L354.529 662.858L354.433 492.244L354.519 352.962L354.471 310.218C354.46 301.732 353.987 292.913 354.877 284.476C355.857 275.192 359.638 266.742 365.682 259.646C371.481 252.839 380.226 247.884 388.664 245.199C398.492 242.071 408.753 240.275 418.834 238.166Q436.001 234.538 453.089 230.558L605.326 196.258L715.073 171.392C730.011 168.047 750.92 161.87 765.654 160.704ZM764.06 165.692C755.479 166.8 747.014 168.935 738.59 170.871L705.748 178.342L583.155 206.176L452.728 235.452Q435.743 239.327 418.715 243.005C409.484 244.974 400.077 246.649 391.062 249.478C382.981 252.014 374.231 256.256 368.958 263.139C365.181 268.07 362.055 273.957 360.825 280.084C358.071 293.797 359.519 311.038 359.529 325.18L359.578 401.99C371.633 399.31 383.911 397.314 395.864 394.211L661.807 335.165L751.26 314.909C769.664 310.704 788.317 305.667 806.958 302.732Q806.825 269.389 807.074 236.048C807.115 223.187 808.568 206.543 805.451 194.228C803.733 187.438 800.024 181.487 794.999 176.639C787.019 168.938 776.793 165.199 765.749 165.544C765.176 165.561 764.627 165.623 764.06 165.692Z"/>
</svg>
