<?xml version="1.0" encoding="utf-8" ?>
<svg xmlns="http://www.w3.org/2000/svg" xmlns:xlink="http://www.w3.org/1999/xlink" width="1024" height="1024">
	<path fill="#A1A1AA" d="M427.07 148.75Q431.865 148.488 436.667 148.392Q441.468 148.295 446.27 148.365Q451.072 148.434 455.868 148.669Q460.665 148.904 465.451 149.305Q470.236 149.706 475.005 150.271Q479.774 150.836 484.521 151.566Q489.267 152.296 493.986 153.189Q498.704 154.082 503.389 155.138Q508.074 156.193 512.72 157.409Q517.366 158.626 521.967 160.002Q526.568 161.378 531.118 162.912Q535.669 164.446 540.164 166.137Q544.659 167.827 549.093 169.671Q553.527 171.516 557.895 173.512Q562.263 175.508 566.559 177.654Q570.855 179.8 575.075 182.093Q578.159 183.745 581.2 185.473Q584.242 187.201 587.24 189.003Q590.239 190.805 593.192 192.681Q596.145 194.556 599.051 196.504Q601.957 198.452 604.814 200.471Q607.671 202.489 610.477 204.578Q613.284 206.667 616.038 208.824Q618.792 210.981 621.492 213.205Q624.192 215.429 626.836 217.719Q629.481 220.009 632.068 222.364Q634.655 224.719 637.184 227.136Q639.712 229.554 642.18 232.033Q644.649 234.512 647.055 237.051Q649.461 239.591 651.804 242.188Q654.147 244.786 656.425 247.441Q658.704 250.096 660.916 252.806Q663.128 255.516 665.273 258.279Q667.417 261.043 669.493 263.859Q671.569 266.675 673.575 269.541Q675.581 272.407 677.516 275.321Q679.451 278.236 681.313 281.197Q683.175 284.159 684.964 287.165Q686.753 290.171 688.467 293.221Q690.181 296.27 691.819 299.361Q693.458 302.452 695.02 305.582Q696.582 308.713 698.066 311.88Q699.55 315.048 700.956 318.252Q702.362 321.455 703.688 324.692Q705.014 327.929 706.261 331.198Q707.507 334.467 708.672 337.765Q709.837 341.064 710.921 344.39Q712.005 347.716 713.006 351.068Q713.888 354.026 714.708 357.001Q715.528 359.977 716.285 362.969Q717.042 365.961 717.735 368.969Q718.429 371.976 719.06 374.997Q719.69 378.019 720.256 381.053Q720.823 384.087 721.326 387.132Q721.828 390.177 722.266 393.232Q722.705 396.287 723.079 399.351Q723.453 402.415 723.762 405.485Q724.071 408.556 724.316 411.633Q724.561 414.71 724.741 417.791Q724.92 420.872 725.035 423.956Q725.15 427.041 725.2 430.127Q725.25 433.213 725.235 436.299Q725.22 439.385 725.14 442.471Q725.06 445.556 724.915 448.639Q724.771 451.722 724.561 454.801Q724.351 457.881 724.076 460.955Q723.802 464.029 723.463 467.097Q723.123 470.164 722.72 473.224Q722.316 476.284 721.848 479.335Q721.38 482.386 720.848 485.426Q720.316 488.466 719.72 491.494Q719.124 494.523 718.464 497.538Q717.804 500.553 717.081 503.553Q716.358 506.554 715.572 509.539Q714.786 512.523 713.938 515.491Q713.089 518.458 712.178 521.407Q711.267 524.356 710.294 527.285Q709.322 530.214 708.287 533.122Q707.253 536.03 706.158 538.916Q705.063 541.801 703.907 544.663C698.466 557.885 691.319 570.395 684.477 582.923C698.155 597.906 713.293 611.929 727.661 626.275L809.559 708.065L835.688 734.09C843.286 741.641 851.357 749.116 857.525 757.917C864.457 767.806 868.977 779.663 869.225 791.809C869.589 809.64 862.023 824.518 849.805 837.077C834.828 852.472 817.722 865.869 795.306 865.99C785.27 866.045 775.725 863.783 766.912 858.953C750.012 849.691 735.712 832.991 722.156 819.521L683.25 781.01C650.134 747.652 615.472 715.766 582.274 682.479C575.956 686.356 569.044 689.602 562.348 692.777Q555.929 695.865 549.369 698.639Q542.808 701.412 536.12 703.865Q529.433 706.317 522.634 708.443Q515.836 710.568 508.942 712.362Q502.049 714.155 495.077 715.613Q488.104 717.07 481.07 718.188Q474.035 719.306 466.954 720.082Q459.874 720.858 452.764 721.29Q449.366 721.489 445.964 721.603Q442.562 721.718 439.158 721.75Q435.754 721.781 432.35 721.728Q428.947 721.676 425.545 721.539Q422.144 721.403 418.747 721.183Q415.35 720.963 411.96 720.66Q408.569 720.357 405.188 719.97Q401.805 719.583 398.434 719.114Q395.063 718.644 391.704 718.092Q388.345 717.539 385.001 716.904Q381.656 716.269 378.329 715.552Q375.001 714.835 371.692 714.037Q368.383 713.238 365.095 712.358Q361.806 711.479 358.541 710.518Q355.275 709.558 352.034 708.517Q348.793 707.477 345.578 706.357Q342.364 705.237 339.178 704.039Q335.992 702.84 332.836 701.564Q329.68 700.287 326.557 698.933Q323.434 697.579 320.345 696.149Q317.256 694.719 314.203 693.213Q311.15 691.708 308.135 690.127Q305.12 688.547 302.145 686.893Q299.17 685.239 296.237 683.512Q293.303 681.786 290.413 679.987Q287.523 678.189 284.678 676.32Q281.832 674.451 279.034 672.513Q276.236 670.574 273.486 668.568Q270.736 666.561 268.037 664.488Q265.337 662.414 262.69 660.275Q260.042 658.136 257.448 655.932Q254.853 653.728 252.314 651.461C239.393 639.872 227.055 627.378 216.272 613.758C180.629 568.735 157.669 510.516 154.682 453.04C150.57 373.904 174.701 300.834 228.003 241.711Q230.379 239.109 232.818 236.567Q235.257 234.024 237.758 231.542Q240.26 229.06 242.821 226.641Q245.382 224.221 248.002 221.866Q250.623 219.51 253.3 217.22Q255.977 214.929 258.71 212.705Q261.443 210.481 264.23 208.326Q267.017 206.17 269.856 204.083Q272.695 201.996 275.585 199.98Q278.474 197.964 281.413 196.019Q284.351 194.075 287.336 192.203Q290.321 190.332 293.352 188.535Q296.382 186.737 299.456 185.015Q302.53 183.292 305.645 181.646Q308.76 180 311.915 178.431Q315.07 176.862 318.263 175.371Q321.455 173.88 324.683 172.469Q327.912 171.057 331.174 169.725Q334.435 168.393 337.729 167.142Q341.023 165.891 344.347 164.721Q347.67 163.551 351.022 162.463Q354.373 161.376 357.75 160.371Q361.127 159.366 364.528 158.445Q367.929 157.524 371.351 156.686Q374.774 155.849 378.216 155.096Q381.658 154.343 385.118 153.675Q388.577 153.007 392.052 152.425Q395.527 151.842 399.015 151.345Q402.503 150.849 406.003 150.438Q409.502 150.027 413.011 149.702Q416.519 149.378 420.034 149.14Q423.55 148.902 427.07 148.75ZM428.003 152.716C408.125 154.07 388.403 156.695 369.066 161.623Q366.522 162.274 363.991 162.973Q361.459 163.672 358.941 164.418Q356.424 165.164 353.92 165.957Q351.417 166.75 348.928 167.589Q346.44 168.429 343.968 169.315Q341.496 170.201 339.041 171.133Q336.586 172.065 334.148 173.042Q331.711 174.02 329.292 175.043Q326.874 176.066 324.475 177.134Q322.076 178.202 319.697 179.315Q317.318 180.427 314.961 181.584Q312.603 182.741 310.268 183.942Q307.933 185.143 305.62 186.387Q303.307 187.631 301.018 188.918Q298.729 190.206 296.465 191.535Q294.201 192.865 291.961 194.237Q289.722 195.609 287.509 197.022Q285.296 198.436 283.109 199.89Q280.923 201.345 278.764 202.84Q276.605 204.335 274.474 205.87Q272.344 207.406 270.242 208.98Q268.141 210.555 266.069 212.169Q263.997 213.783 261.956 215.435Q259.915 217.087 257.905 218.777Q255.895 220.467 253.917 222.195Q251.939 223.922 249.994 225.686Q248.048 227.45 246.136 229.25Q244.224 231.05 242.346 232.885Q240.468 234.721 238.624 236.591Q236.781 238.461 234.973 240.366Q233.164 242.27 231.392 244.208Q229.62 246.145 227.884 248.116C177.623 305.742 153.674 378.555 158.873 454.796Q159.128 458.293 159.469 461.783Q159.81 465.273 160.237 468.753Q160.664 472.234 161.177 475.702Q161.689 479.171 162.288 482.626Q162.886 486.081 163.569 489.521Q164.252 492.96 165.02 496.381Q165.788 499.803 166.639 503.204Q167.491 506.606 168.427 509.985Q169.362 513.364 170.381 516.72Q171.4 520.075 172.501 523.404Q173.602 526.733 174.785 530.034Q175.968 533.335 177.231 536.606Q178.495 539.876 179.84 543.115Q181.184 546.354 182.607 549.558Q184.031 552.763 185.533 555.931Q187.036 559.099 188.616 562.23Q190.195 565.36 191.852 568.45Q193.509 571.541 195.241 574.589Q196.974 577.638 198.781 580.643Q200.588 583.648 202.468 586.608Q204.349 589.567 206.302 592.479Q208.255 595.391 210.279 598.255Q212.304 601.118 214.398 603.93Q216.492 606.742 218.655 609.502Q220.818 612.262 223.049 614.968Q225.279 617.673 227.576 620.323Q229.872 622.973 232.233 625.565Q234.594 628.158 237.019 630.691Q239.443 633.225 241.929 635.697Q244.415 638.17 246.962 640.581Q249.508 642.991 252.113 645.339Q254.718 647.686 257.38 649.968Q259.927 652.204 262.53 654.377Q265.132 656.549 267.788 658.656Q270.443 660.763 273.151 662.803Q275.858 664.844 278.615 666.816Q281.372 668.788 284.178 670.691Q286.983 672.594 289.835 674.426Q292.687 676.258 295.584 678.019Q298.481 679.78 301.42 681.469Q304.36 683.157 307.341 684.771Q310.321 686.386 313.341 687.926Q316.361 689.466 319.419 690.93Q322.476 692.394 325.569 693.782Q328.662 695.17 331.788 696.48Q334.915 697.79 338.073 699.022Q341.231 700.254 344.419 701.407Q347.607 702.56 350.822 703.633Q354.038 704.707 357.279 705.7Q360.521 706.692 363.785 707.604Q367.05 708.516 370.337 709.347Q373.624 710.177 376.93 710.925Q380.236 711.674 383.56 712.339Q386.884 713.005 390.224 713.588Q393.563 714.171 396.916 714.67Q400.269 715.17 403.633 715.586Q406.998 716.001 410.371 716.333Q413.745 716.665 417.126 716.913Q420.507 717.161 423.893 717.325Q427.279 717.489 430.668 717.568Q434.057 717.647 437.447 717.642Q440.836 717.637 444.225 717.548Q447.614 717.458 450.999 717.285Q454.385 717.111 457.765 716.853Q464.11 716.402 470.427 715.664Q476.745 714.927 483.023 713.904Q489.301 712.881 495.526 711.575Q501.751 710.269 507.911 708.682Q514.07 707.096 520.152 705.232Q526.234 703.369 532.224 701.232Q538.216 699.095 544.104 696.69Q549.992 694.284 555.765 691.614C565.125 687.304 573.828 681.542 583.214 677.364C587.747 681.083 591.839 685.458 596.017 689.572L615.99 709.135L682.825 775.01L721.2 812.997C735.147 826.933 750.865 845.284 768.022 854.855C776.179 859.406 786.05 861.592 795.346 861.597C816.842 861.607 831.624 848.993 846.034 834.441C857.746 822.613 864.829 810.069 864.653 793.084Q864.64 791.004 864.475 788.93Q864.309 786.856 863.992 784.799Q863.674 782.743 863.206 780.716Q862.739 778.689 862.123 776.701Q861.508 774.714 860.748 772.777Q859.988 770.84 859.088 768.964Q858.188 767.089 857.153 765.284Q856.117 763.48 854.952 761.756C849.354 753.371 841.813 746.425 834.715 739.333L812.858 717.507L720.397 625.092Q707.755 612.377 694.944 599.834C689.734 594.731 684.071 589.796 679.407 584.192C686.587 570.492 694.07 557.063 699.857 542.688Q701.019 539.813 702.119 536.915Q703.22 534.016 704.257 531.094Q705.295 528.172 706.269 525.228Q707.243 522.285 708.154 519.321Q709.065 516.357 709.912 513.375Q710.759 510.392 711.541 507.392Q712.324 504.391 713.042 501.375Q713.759 498.358 714.412 495.327Q715.065 492.296 715.652 489.252Q716.239 486.207 716.761 483.151Q717.282 480.094 717.738 477.027Q718.194 473.96 718.583 470.884Q718.973 467.808 719.296 464.725Q719.62 461.641 719.877 458.551Q720.133 455.461 720.324 452.366Q720.514 449.271 720.638 446.173Q720.761 443.075 720.818 439.975Q720.875 436.875 720.866 433.774Q720.856 430.674 720.78 427.574Q720.703 424.474 720.56 421.377Q720.417 418.28 720.207 415.186Q719.997 412.093 719.721 409.004Q719.445 405.916 719.102 402.834Q718.759 399.753 718.351 396.679Q717.942 393.606 717.467 390.542Q716.992 387.478 716.451 384.425Q715.91 381.372 715.304 378.331Q714.698 375.29 714.026 372.263Q713.354 369.236 712.618 366.224Q711.881 363.212 711.08 360.217Q710.278 357.222 709.413 354.244Q708.547 351.267 707.618 348.309Q706.592 345.06 705.489 341.838Q704.385 338.615 703.203 335.42Q702.021 332.225 700.763 329.059Q699.504 325.894 698.169 322.76Q696.834 319.626 695.423 316.525Q694.013 313.424 692.528 310.358Q691.042 307.293 689.483 304.264Q687.924 301.235 686.292 298.245Q684.661 295.254 682.957 292.305Q681.253 289.355 679.478 286.447Q677.703 283.539 675.859 280.676Q674.014 277.812 672.1 274.993Q670.187 272.175 668.205 269.404Q666.224 266.633 664.176 263.91Q662.129 261.188 660.015 258.516Q657.902 255.844 655.725 253.224Q653.548 250.604 651.308 248.038Q649.068 245.471 646.766 242.96Q644.465 240.448 642.103 237.993Q639.741 235.538 637.321 233.141Q634.9 230.744 632.423 228.406Q629.945 226.069 627.411 223.792Q624.877 221.515 622.289 219.3Q619.701 217.085 617.06 214.933Q614.419 212.781 611.727 210.694Q609.034 208.607 606.292 206.586Q603.55 204.564 600.76 202.61Q597.97 200.656 595.133 198.77Q592.296 196.884 589.415 195.067Q586.533 193.25 583.608 191.504Q580.683 189.757 577.717 188.082Q574.751 186.407 571.745 184.804Q567.635 182.608 563.453 180.553Q559.271 178.498 555.021 176.586Q550.772 174.674 546.46 172.906Q542.149 171.139 537.78 169.519Q533.411 167.899 528.989 166.427Q524.568 164.956 520.099 163.635Q515.631 162.314 511.12 161.146Q506.609 159.977 502.061 158.962Q497.513 157.947 492.934 157.086Q488.354 156.225 483.748 155.52Q479.142 154.815 474.515 154.267Q469.887 153.718 465.244 153.326Q460.601 152.935 455.947 152.701Q451.293 152.467 446.634 152.39Q441.975 152.314 437.316 152.395Q432.657 152.477 428.003 152.716Z"/>
</svg>
