<?xml version="1.0" encoding="utf-8" ?>
<svg xmlns="http://www.w3.org/2000/svg" xmlns:xlink="http://www.w3.org/1999/xlink" width="1024" height="1024">
	<path fill="#34D399" d="M511.37 160.334C512.766 160.449 513.687 161.406 514.685 162.303C525.798 172.285 536.195 183.197 547.054 193.473C584.631 229.029 621.631 265.222 659.458 300.506C659.738 277.081 659.137 253.686 659.012 230.275C658.966 221.807 659.641 212.765 666.137 206.505C675.229 197.744 696.55 200.605 708.36 200.832C713.715 200.934 719.071 200.478 724.427 200.497C733.017 200.528 740.938 201.404 747.261 207.991C750.549 211.418 752.093 215.285 752.762 219.925C753.748 226.772 753.285 234.013 753.262 240.926L753.212 273.886L753.065 390.059C761.914 400.403 772.618 409.378 782.419 418.809L833.04 467.625C840.442 474.634 848.882 481.348 855.659 488.931C857.58 491.08 859.84 493.705 859.943 496.698C860.025 499.092 859.034 502.006 857.27 503.68C855.324 505.527 851.652 505.906 849.073 506.203C843.397 506.855 837.252 506.197 831.531 506.154Q813.511 506.039 795.49 506.134L795.502 731.196L795.254 800.989C795.248 813.153 796.239 825.717 795.026 837.815C794.459 843.468 793.114 848.787 789.007 852.974C785.323 856.73 781.201 858.221 776.156 858.973C769.714 859.934 762.956 859.524 756.448 859.531L725.236 859.559L624.503 859.465C609.198 859.372 593.543 858.255 578.279 858.818L577.722 858.843L577.54 638.25L577.501 601.5C533.855 601.41 490.117 602.235 446.487 601.663L446.227 759.434L445.895 859.449C431.363 859.858 416.685 859.316 402.141 859.253L323.963 859.163L274.482 859.099C265.619 859.079 256.2 859.67 247.399 858.686C243.381 858.236 238.04 856.648 235.032 853.781C231.555 850.469 229.619 845.542 229.131 840.83C227.934 829.276 228.943 817.236 228.95 805.616L228.942 734.98L228.93 506.622C214.506 506.428 200.07 507.211 185.638 507.004C180.18 506.926 169.477 507.822 165.585 503.518C164.025 501.793 163.224 499.571 163.388 497.245C163.587 494.402 165.361 491.817 167.284 489.824C172.926 483.976 179.274 478.635 185.226 473.093C194.253 464.688 203.115 456.094 212.03 447.571L307.503 355.924L453.84 215.41C473.028 197.051 491.911 178.407 511.37 160.334ZM511.644 165.568L272.299 395.258L204.858 460.032Q195.214 469.426 185.429 478.674C181.179 482.656 176.606 486.493 172.596 490.71C170.456 492.96 168.428 495.583 167.328 498.504C167.678 499.749 168.083 500.271 169.209 500.962C175.584 504.878 222.507 503.156 232.653 502.71L232.984 728.127L232.843 800.855C232.767 813.354 231.712 826.276 232.806 838.708C233.221 843.429 234.347 847.403 237.734 850.906C241.096 854.382 245.165 854.784 249.77 855.259C257.418 856.046 265.395 855.586 273.087 855.552L310.41 855.521L432.258 855.491L433.99 855.476Q433.325 722.693 434.119 589.915C460.446 590.24 486.795 590.06 513.125 590.07L590.427 589.996L590.373 855.848C629.377 856.366 668.441 855.884 707.454 855.978L743.055 856.103C753.786 856.206 764.619 856.637 775.304 855.401C778.739 855.004 783.146 853.323 785.701 850.897C788.891 847.868 790.547 843.818 791.034 839.516C792.465 826.88 791.485 813.494 791.461 800.767L791.445 730.749L791.431 507.748L791.369 502.21L825.502 502.374C832.995 502.474 840.926 503.318 848.345 502.264C850.991 501.888 853.303 501.253 855.38 499.536C855.932 498.066 855.857 497.208 855.168 495.778C853.96 493.272 851.991 491.159 850.035 489.217C843.099 482.332 835.724 475.849 828.63 469.124L792.75 434.497Q696.554 340.852 598.965 248.66L537.635 190.235C529.657 182.594 520.69 171.383 511.644 165.568ZM678.444 204.535C673.617 205.973 668.603 208.658 666.013 213.181C664.426 215.951 663.946 219.556 663.678 222.711C662.892 231.965 663.455 241.677 663.462 250.986L663.524 304.33L722.839 361.175C729.235 367.296 735.921 373.157 742.189 379.403L749.067 385.83C749.818 347.814 749.285 309.697 749.188 271.672Q749.094 255.847 749.182 240.023C749.214 233.658 749.755 226.769 748.812 220.472C748.238 216.637 746.777 213.395 744.059 210.601C741.49 207.961 738.945 206.61 735.39 205.709C727.305 203.659 717.724 204.558 709.435 204.59Q693.939 204.755 678.444 204.535Z"/>
</svg>
