<?xml version="1.0" encoding="utf-8" ?>
<svg xmlns="http://www.w3.org/2000/svg" xmlns:xlink="http://www.w3.org/1999/xlink" width="4077" height="4077">
	<path fill="#F2FCEE" transform="scale(3.98145 3.98145)" d="M503.819 666.361C505.517 666.292 507.576 666.161 509.027 667.222C510.107 668.011 510.745 669.056 510.921 670.38C511.575 675.321 489.883 769.494 486.439 780.679C485.875 782.511 485.115 783.886 483.949 785.401C482.21 785.634 480.465 785.878 478.833 785.085C477.817 784.592 477.23 783.606 476.99 782.522C476.368 779.704 477.698 774.683 478.246 771.864C481.848 753.344 486.694 735.011 490.872 716.61C494.274 701.625 496.945 686.152 501.193 671.4C501.762 669.421 502.536 667.966 503.819 666.361Z"/>
	<path fill="#F2FCEE" transform="scale(3.98145 3.98145)" d="M664.552 852.868C664.872 852.913 665.192 852.964 665.509 853.028C667.106 853.348 668.553 853.657 669.395 855.228C670.344 856.999 669.749 859.256 669.394 861.132C666.572 876.007 661.864 890.897 657.932 905.523Q650.505 933.428 643.8 961.515C642.768 965.725 642.141 967.2 638.369 969.487C636.669 969.199 634.543 968.934 633.524 967.33C632.252 965.33 633.265 960.989 633.662 958.741C636.022 945.37 640.114 931.983 643.534 918.84C648.251 900.713 652.689 882.444 657.804 864.429C659.218 859.45 659.759 855.546 664.552 852.868Z"/>
	<path fill="#F2FCEE" transform="scale(3.98145 3.98145)" d="M700.56 665.659C708.964 665.231 763.255 664.265 768.691 666.717C769.963 667.29 770.967 668.249 771.217 669.675C771.432 670.897 770.987 671.991 770.181 672.878C766.542 676.883 741.345 675.507 735.21 675.548C733.371 687.586 730.552 699.544 728.052 711.464Q722.978 736.224 717.461 760.89C716.154 766.599 715.648 778.208 711.37 782.192C710.195 783.287 708.704 783.772 707.096 783.549C705.866 783.379 704.82 782.831 704.205 781.719C703.181 779.865 703.734 777.142 704.013 775.131C705.461 764.705 708.388 754.248 710.488 743.915Q717.239 709.591 724.766 675.429C715.84 675.441 702.84 676.643 694.47 674.418C692.826 673.982 691.555 673.489 690.645 671.985C690.72 670.898 690.762 670.527 691.47 669.632C693.945 666.498 696.92 666.177 700.56 665.659Z"/>
	<path fill="#F2FCEE" transform="scale(3.98145 3.98145)" d="M590.775 853.645C593.666 853.206 597.023 853.303 599.93 853.635C603.684 854.064 609.233 855.082 611.55 858.327C612.44 859.574 612.686 861.2 612.285 862.671C610.552 869.026 598.597 864.083 593.839 863.943Q592.73 863.906 591.622 863.951Q590.514 863.996 589.412 864.122Q588.31 864.248 587.22 864.455Q586.13 864.662 585.058 864.948Q583.987 865.234 582.939 865.598Q581.891 865.962 580.873 866.402Q579.854 866.842 578.871 867.355Q577.888 867.869 576.945 868.453C569.991 872.837 563.847 881.134 562.264 889.223C561.672 892.248 561.618 896.569 563.622 899.138C567.874 904.589 580.758 901.499 587.022 902.174C590.962 902.598 595.066 904.2 597.512 907.457C601.778 913.136 601.365 922.426 600.371 929.132C598.611 941.002 592.411 952.32 582.635 959.452C572.271 967.014 559.091 969.407 546.547 967.445C545.068 967.238 543.654 966.926 542.229 966.472C537.429 964.941 532.071 961.916 529.808 957.184C528.997 955.488 528.517 953.257 529.342 951.465C529.911 950.229 530.649 949.374 532.012 949.022C536.004 947.992 539.575 952.419 542.511 954.425C547.743 958.001 556.456 958.143 562.496 957.078C571.012 955.577 579.176 951.155 584.124 943.918C588.356 937.729 591.918 926.001 590.26 918.6C587.647 906.93 567.286 915.367 557.588 908.663C554.368 906.437 552.38 903.031 551.739 899.199C550.128 889.568 553.534 878.902 559.285 871.196C566.996 860.864 578.251 855.526 590.775 853.645Z"/>
	<path fill="#F2FCEE" transform="scale(3.98145 3.98145)" d="M510.651 852.333C512.353 852.613 513.503 852.994 514.575 854.427C516.329 856.774 515.68 861.169 515.158 863.832C512.966 875.025 509.984 886.261 507.274 897.356C503.701 911.988 500.789 928.217 494.042 941.733C490.16 949.51 484.552 956.831 477.256 961.683C468.028 967.82 455.625 969.96 444.798 967.741C438.678 966.486 433.271 963.45 429.908 958.043C426.784 953.019 425.897 946.979 425.989 941.158C426.191 928.423 430.402 914.996 433.329 902.643L441.63 866.119C442.348 862.969 443.104 859.535 444.558 856.634C445.504 854.749 446.385 853.528 448.439 852.839C450.051 852.916 451.337 853.567 452.328 854.857C453.119 855.886 453.374 856.968 453.346 858.232C453.209 864.491 450.966 871.42 449.562 877.509Q445.883 893.538 442.019 909.524C440.121 917.341 437.88 925.155 436.871 933.15C436.056 939.611 435.569 947.947 439.952 953.283C442.777 956.722 447.124 957.941 451.402 958.294C480.691 960.706 488.365 931.472 493.976 908.893C496.934 896.987 499.439 884.963 502.218 873.014C503.699 866.647 505.067 857.064 510.24 852.672C510.376 852.557 510.514 852.446 510.651 852.333Z"/>
	<path fill="#F2FCEE" transform="scale(3.98145 3.98145)" d="M763.287 852.697C768.359 852.106 773.792 852.514 778.806 853.419C788.301 855.132 800.284 859.712 805.851 868.126C807.129 870.057 808.509 873.164 807.61 875.51C807.143 876.73 806.298 877.159 805.098 877.453C800.33 878.622 794.588 871.841 791.191 869.332C781.647 862.283 769.207 861.649 757.86 863.449C742.233 865.927 727.28 873.978 718.011 887.017C708.982 899.719 704.053 916.713 706.755 932.235Q706.883 932.962 707.047 933.681Q707.211 934.401 707.411 935.112Q707.61 935.823 707.844 936.522Q708.079 937.222 708.347 937.91Q708.616 938.598 708.918 939.271Q709.22 939.945 709.555 940.602Q709.89 941.26 710.257 941.9Q710.624 942.541 711.022 943.162Q711.42 943.784 711.849 944.385Q712.277 944.986 712.734 945.565Q713.192 946.145 713.678 946.7Q714.163 947.256 714.676 947.788Q715.188 948.319 715.726 948.824Q716.264 949.33 716.827 949.808Q717.389 950.286 717.974 950.736Q718.559 951.186 719.166 951.606C729.738 958.853 743.21 958.979 755.373 956.715C762.681 954.764 768.246 951.05 775.05 948.011C777.104 947.094 779.476 946.17 781.652 947.26C782.816 947.844 783.676 948.808 783.989 950.086C784.43 951.886 783.587 953.624 782.531 955.034C776.69 962.836 758.937 967.117 749.752 968.112C735.974 969.604 720.309 967.472 709.274 958.453C700.559 951.329 696.695 940.657 695.678 929.696Q695.528 927.997 695.46 926.292Q695.393 924.588 695.407 922.882Q695.422 921.177 695.519 919.474Q695.616 917.771 695.795 916.074Q695.974 914.378 696.235 912.692Q696.496 911.007 696.838 909.335Q697.18 907.664 697.602 906.012Q698.024 904.359 698.525 902.728Q699.027 901.098 699.607 899.494Q700.186 897.89 700.843 896.315Q701.499 894.741 702.231 893.2Q702.963 891.659 703.768 890.155Q704.573 888.652 705.45 887.189Q706.327 885.726 707.273 884.307Q708.22 882.888 709.234 881.516Q710.248 880.144 711.327 878.823C724.415 863.109 743.149 854.641 763.287 852.697Z"/>
	<path fill="#F2FCEE" transform="scale(3.98145 3.98145)" d="M565.346 666.538C566.783 666.404 568.255 666.242 569.677 666.58C571.807 667.087 573.064 668.867 574.28 670.533C579.617 677.845 583.619 686.807 587.908 694.802Q597.993 713.488 607.872 732.285C612.666 741.612 617.082 751.161 622.234 760.297C625.321 751.065 626.94 741.084 628.966 731.572L636.768 695.975C638.386 688.315 639.531 677.483 642.916 670.573C643.875 668.614 645.333 666.923 647.512 666.346C648.805 666.003 649.943 666.215 651.109 666.822C651.971 667.967 652.289 668.911 652.39 670.325C652.841 676.651 644.661 708.374 642.713 717.377C638.362 737.492 635.008 758.067 629.628 777.941C629.208 779.494 628.684 781.071 627.53 782.245C626.508 783.284 625.22 783.858 623.746 783.648C622.123 783.416 621.15 782.044 620.184 780.871C615.107 772.352 611.082 762.793 606.584 753.922C594.713 730.506 582.986 706.796 569.027 684.544C562.749 706.016 558.017 728.339 553.073 750.164C550.943 759.567 549.151 769.292 546.458 778.544C545.985 780.168 545.52 781.946 544.341 783.213C543.43 784.191 542.316 784.76 540.963 784.752C539.687 784.745 538.428 784.084 537.552 783.179C536.087 781.665 535.523 779.274 535.743 777.22C536.353 771.547 538.564 765.334 539.949 759.762L549.071 722.94C552.841 707.624 555.741 688.778 560.621 674.156C561.689 670.959 562.733 668.747 565.346 666.538Z"/>
	<path fill="#F2FCEE" transform="scale(3.98145 3.98145)" d="M276.974 854.573C278.405 854.387 280.316 854.115 281.697 854.579C283.692 855.249 284.937 857.343 285.976 859.041C289.788 865.268 292.61 872.37 295.692 878.983C302.671 893.959 309.382 909.337 317.669 923.639Q329.664 911.165 341.287 898.344C349.455 889.182 372.035 860.311 381.528 855.217C383.503 854.157 385.249 853.482 387.46 854.159C388.759 855.192 389.205 856.286 389.393 857.893C390.376 866.295 376.375 920.197 373.404 932.685C370.872 943.332 368.817 955.147 365.705 965.539C365.337 966.767 364.787 968.28 363.876 969.226C362.907 970.234 361.926 970.731 360.504 970.692C358.763 970.644 357.265 969.622 356.308 968.207C355.209 966.584 355.48 965.054 355.714 963.219C356.776 954.9 359.622 946.279 361.61 938.124Q367.992 912.44 373.902 886.644Q375.08 880.661 376.402 874.709C362.502 889.44 349.168 904.682 335.298 919.441C330.163 924.905 324.869 931.542 318.941 936.073C317.434 937.225 316.206 937.528 314.328 937.14C312.269 936.716 310.575 933.705 309.561 931.999C305.998 926.006 303.272 919.235 300.26 912.929C293.891 899.593 287.607 886.269 280.404 873.352C279.338 880.411 277.096 887.532 275.452 894.496L266.15 934.835C264.716 941.194 261.809 960.776 259.553 965.606C258.817 967.181 256.971 968.45 255.31 968.848C253.661 969.243 252.669 968.865 251.304 967.971C249.963 966.03 249.999 964.758 250.253 962.514C251.834 948.565 256.538 932.79 259.498 918.855L267.275 881.82C268.794 874.82 270.092 867.149 272.612 860.433C273.586 857.836 274.827 856.298 276.974 854.573Z"/>
	<path fill="#F2FCEE" transform="scale(3.98145 3.98145)" d="M339.98 665.975C341.001 665.977 342.066 665.96 343.066 666.186C344.954 666.612 345.988 667.701 347.022 669.261C350.577 674.623 352.751 681.198 355.239 687.103L367.021 714.513C370.139 721.758 373.027 729.315 377.095 736.082C383.56 730.892 388.954 724.044 394.478 717.874Q408.159 702.833 421.999 687.937C427.691 681.769 433.535 674.553 440.029 669.257C441.665 667.922 444.642 665.815 446.878 665.888C448.064 665.927 448.954 666.143 449.752 667.08C450.574 668.044 450.859 669.55 450.853 670.785C450.82 678.124 447.985 686.378 446.254 693.487C442.93 707.135 439.364 720.739 436.17 734.416L428.033 769.197C427.221 772.706 427.008 776.488 425.984 779.906C425.461 781.653 424.591 784.16 423.12 785.355C422.231 786.076 421.179 786.573 420.004 786.324C418.625 786.033 417.449 784.898 416.761 783.711C415.494 781.524 415.461 778.675 415.83 776.244C416.755 770.165 419.741 761.937 421.233 755.604L434.627 698.117L437.039 687.579C431.222 694.465 384 745.691 378.782 748.363C376.958 749.297 374.557 749.129 372.7 748.373C370.468 747.465 369.081 744.859 367.966 742.844C363.666 735.073 360.598 726.229 357.076 718.049C352.247 706.834 347.028 695.786 342.143 684.593C335.819 708.259 331.452 732.662 326.161 756.593C324.57 763.79 323.468 771.393 321.421 778.456C321.038 779.776 320.364 780.996 319.535 782.09C318.41 783.572 316.558 784.728 314.657 784.78C313.198 784.82 312.621 784.406 311.532 783.514C310.412 781.234 310.547 779.085 310.875 776.604C311.834 769.36 313.773 761.881 315.392 754.735L323.216 720.417C326.668 705.254 329.105 688.947 333.945 674.195C335.228 670.286 336.235 667.845 339.98 665.975Z"/>
	<path fill="#F2FCEE" transform="scale(3.98145 3.98145)" d="M491.038 36.7162C496.597 36.1488 502.45 36.3776 508.054 36.3607C523.644 36.3139 538.968 36.8741 554.499 38.3694Q560.046 38.8936 565.578 39.5554Q571.111 40.2172 576.625 41.0162Q582.139 41.8152 587.631 42.7508Q593.124 43.6865 598.592 44.7583Q604.059 45.8301 609.499 47.0373Q614.938 48.2446 620.346 49.5865Q625.753 50.9285 631.126 52.4043Q636.499 53.8801 641.833 55.4889Q647.167 57.0977 652.46 58.8385Q657.753 60.5793 663.001 62.451Q668.249 64.3227 673.449 66.3241Q678.648 68.3256 683.797 70.4555Q688.945 72.5855 694.039 74.8426Q699.134 77.0998 704.17 79.4827Q709.206 81.8657 714.182 84.373Q719.158 86.8803 724.069 89.5104Q728.981 92.1405 733.826 94.8918Q738.672 97.6431 743.447 100.514Q748.222 103.385 752.924 106.373Q757.627 109.361 762.254 112.466Q766.88 115.57 771.429 118.788Q775.977 122.007 780.444 125.337Q784.911 128.667 789.294 132.107Q793.677 135.547 797.973 139.095Q802.269 142.643 806.475 146.297Q810.682 149.95 814.797 153.707Q818.911 157.464 822.931 161.322Q826.951 165.18 830.874 169.136Q834.797 173.093 838.621 177.145Q842.444 181.198 846.166 185.344Q849.888 189.491 853.505 193.728Q857.123 197.966 860.634 202.292C875.032 219.773 887.409 238.484 898.746 258.066Q900.921 261.799 903.022 265.574Q905.124 269.35 907.151 273.165Q909.179 276.98 911.131 280.835Q913.084 284.689 914.961 288.581Q916.838 292.472 918.638 296.4Q920.439 300.327 922.163 304.289Q923.886 308.251 925.532 312.246Q927.178 316.241 928.745 320.267Q930.313 324.294 931.802 328.35Q933.29 332.406 934.699 336.49Q936.108 340.575 937.438 344.686Q938.767 348.797 940.015 352.933Q941.264 357.069 942.432 361.229Q943.599 365.389 944.685 369.571Q945.771 373.753 946.776 377.955Q947.78 382.158 948.702 386.379Q949.624 390.6 950.464 394.838Q951.303 399.076 952.059 403.33Q952.816 407.584 953.489 411.852Q954.163 416.12 954.753 420.4Q955.342 424.68 955.849 428.971Q956.355 433.262 956.777 437.562Q957.199 441.862 957.538 446.169Q957.876 450.477 958.13 454.79Q958.384 459.103 958.554 463.421Q958.724 467.738 958.809 472.058Q958.894 476.377 958.896 480.698Q958.897 485.019 958.813 489.339Q958.73 493.658 958.562 497.976Q958.395 502.293 958.143 506.606Q957.891 510.92 957.555 515.227Q957.219 519.535 956.799 523.835Q956.292 529.24 955.653 534.631Q955.013 540.022 954.241 545.395Q953.468 550.769 952.564 556.122Q951.659 561.474 950.623 566.803Q949.587 572.132 948.42 577.434Q947.252 582.736 945.955 588.007Q944.657 593.278 943.23 598.516Q941.803 603.754 940.247 608.955Q938.692 614.156 937.008 619.317Q935.325 624.478 933.515 629.596Q931.705 634.714 929.769 639.786Q927.833 644.858 925.773 649.881Q923.713 654.903 921.53 659.874Q919.346 664.844 917.041 669.759Q914.736 674.674 912.31 679.531Q909.885 684.387 907.34 689.183Q904.796 693.978 902.134 698.709Q899.472 703.441 896.694 708.105Q893.916 712.769 891.024 717.363Q888.132 721.958 885.128 726.479Q882.124 731.001 879.009 735.447Q875.894 739.893 872.671 744.262Q869.448 748.63 866.117 752.917Q862.787 757.204 859.353 761.408Q855.918 765.612 852.381 769.73Q848.843 773.849 845.206 777.878Q841.568 781.908 837.832 785.846Q834.096 789.785 830.264 793.631Q826.432 797.476 822.507 801.226Q818.581 804.976 814.565 808.628Q810.548 812.28 806.442 815.832Q802.337 819.383 798.145 822.833C795.278 820.103 792.746 817.1 790.172 814.1C793.87 810.365 798.243 807.046 802.242 803.609C886.458 731.221 937.683 623.001 945.9 512.862Q946.295 507.571 946.559 502.271Q946.824 496.972 946.957 491.667Q947.09 486.363 947.092 481.057Q947.094 475.751 946.965 470.446Q946.836 465.142 946.575 459.842Q946.315 454.542 945.924 449.251Q945.533 443.959 945.011 438.679Q944.489 433.398 943.837 428.132Q943.184 422.867 942.402 417.619Q941.62 412.37 940.708 407.143Q939.797 401.916 938.756 396.713Q937.715 391.51 936.547 386.334Q935.378 381.159 934.081 376.013Q932.785 370.868 931.361 365.756Q929.938 360.645 928.389 355.57Q926.84 350.495 925.165 345.46Q923.491 340.425 921.693 335.433Q919.895 330.441 917.974 325.494Q916.053 320.548 914.011 315.651Q911.968 310.754 909.805 305.909Q907.642 301.064 905.36 296.273Q903.078 291.483 900.678 286.751Q898.278 282.018 895.762 277.347Q893.245 272.675 890.615 268.067Q887.984 263.459 885.24 258.918Q882.496 254.376 879.641 249.904Q876.785 245.432 873.82 241.031Q870.855 236.631 867.782 232.305Q864.709 227.98 861.531 223.731Q858.352 219.483 855.069 215.314Q851.786 211.146 848.401 207.059Q845.016 202.973 841.531 198.972C763.868 108.892 655.491 57.4934 537.38 48.8479C529.921 47.881 521.866 48.0283 514.33 47.9687C470.096 47.6192 424.212 54.2345 382.064 67.7171Q376.927 69.3134 371.831 71.0366Q366.735 72.7598 361.684 74.6089Q356.632 76.458 351.628 78.4318Q346.624 80.4056 341.67 82.503Q336.716 84.6003 331.816 86.8198Q326.916 89.0394 322.072 91.3798Q317.229 93.7201 312.445 96.1799Q307.661 98.6398 302.939 101.217Q298.218 103.795 293.561 106.489Q288.905 109.183 284.317 111.992Q279.729 114.801 275.212 117.722Q270.696 120.644 266.253 123.677Q261.81 126.709 257.443 129.851Q253.077 132.993 248.79 136.243Q244.503 139.492 240.297 142.847Q236.092 146.201 231.971 149.659Q227.851 153.117 223.817 156.676Q219.783 160.235 215.839 163.893Q211.895 167.551 208.043 171.306Q204.19 175.061 200.433 178.91Q196.675 182.759 193.013 186.7Q189.352 190.641 185.79 194.672Q182.227 198.703 178.766 202.821Q175.304 206.939 171.946 211.141Q168.588 215.344 165.335 219.628Q162.082 223.913 158.937 228.276Q155.791 232.64 152.755 237.081Q149.718 241.521 146.793 246.036Q143.868 250.55 141.055 255.136Q138.243 259.721 135.545 264.375Q132.847 269.029 130.265 273.749Q127.684 278.468 125.22 283.25Q121.659 290.1 118.346 297.074Q115.033 304.047 111.971 311.135Q108.909 318.222 106.104 325.415Q103.298 332.607 100.751 339.896Q98.205 347.184 95.9211 354.559Q93.6373 361.934 91.6189 369.386Q89.6006 376.838 87.8503 384.358Q86.1001 391.877 84.6202 399.455Q83.1403 407.032 81.9327 414.657Q80.725 422.283 79.7912 429.947Q78.8574 437.611 78.1985 445.303Q77.5397 452.995 77.1567 460.706Q76.7737 468.417 76.667 476.137Q76.5604 483.857 76.7302 491.576Q76.9 499.294 77.346 507.002Q77.7921 514.709 78.5138 522.396Q79.2355 530.083 80.232 537.739Q81.2285 545.395 82.4985 553.01Q83.7685 560.625 85.3103 568.19Q86.8521 575.755 88.6638 583.26Q90.4755 590.765 92.5547 598.2Q94.6339 605.636 96.978 612.992Q99.3222 620.348 101.928 627.615Q104.534 634.883 107.399 642.052Q110.263 649.221 113.383 656.284Q116.502 663.346 119.872 670.292Q123.242 677.238 126.859 684.059Q130.476 690.88 134.335 697.567Q138.193 704.254 142.289 710.799Q146.385 717.343 150.712 723.737Q155.039 730.131 159.593 736.366Q164.146 742.6 168.92 748.668Q182.129 765.298 196.879 780.578C201.087 784.948 229.362 810.649 230.269 813.999C230.668 815.475 230.459 816.905 229.563 818.156C228.517 819.619 226.815 820.428 225.04 820.489C221.002 820.627 216.698 816.382 213.874 813.868Q210.748 811.119 207.674 808.311Q204.6 805.503 201.581 802.637Q198.561 799.771 195.596 796.848Q192.632 793.926 189.723 790.947Q186.815 787.968 183.963 784.935Q181.112 781.901 178.319 778.814Q175.526 775.727 172.792 772.587Q170.058 769.447 167.384 766.256Q164.711 763.065 162.098 759.824Q159.486 756.582 156.935 753.292Q154.385 750.001 151.898 746.663Q149.41 743.324 146.987 739.939Q144.563 736.554 142.205 733.124Q139.846 729.693 137.553 726.218Q135.26 722.743 133.034 719.225Q130.808 715.708 128.649 712.148Q126.489 708.589 124.398 704.989Q122.307 701.389 120.285 697.75Q118.263 694.111 116.31 690.434Q114.358 686.757 112.476 683.043Q110.593 679.33 108.782 675.582Q106.971 671.833 105.231 668.051Q103.491 664.269 101.824 660.454Q100.156 656.64 98.5615 652.794Q96.9668 648.948 95.4456 645.073Q93.9244 641.198 92.4772 637.294Q91.03 633.391 89.6572 629.46Q88.2845 625.53 86.9868 621.574Q85.689 617.618 84.4668 613.639Q83.2445 609.659 82.0981 605.657Q80.9518 601.655 79.8818 597.631Q78.8117 593.608 77.8184 589.565C71.6668 565.188 66.9873 539.586 65.5319 514.449Q65.1611 508.841 64.9297 503.225Q64.6982 497.609 64.6063 491.989Q64.5144 486.369 64.562 480.748Q64.6096 475.128 64.7968 469.51Q64.9839 463.893 65.3105 458.282Q65.6371 452.671 66.1029 447.069Q66.5688 441.468 67.1735 435.88Q67.7782 430.292 68.5215 424.72Q69.2648 419.149 70.1462 413.598Q71.0276 408.047 72.0466 402.519Q73.0656 396.992 74.2214 391.491Q75.3773 385.991 76.6694 380.521Q77.9615 375.051 79.3891 369.614Q80.8166 364.178 82.3787 358.779Q83.9407 353.379 85.6364 348.021Q87.332 342.662 89.1602 337.347Q90.9883 332.032 92.9479 326.764Q94.9075 321.496 96.9973 316.278Q99.087 311.06 101.306 305.896Q103.524 300.732 105.871 295.624Q108.217 290.517 110.689 285.469Q113.161 280.421 115.758 275.436Q118.355 270.452 121.075 265.533Q123.795 260.614 126.636 255.764Q129.477 250.914 132.438 246.137Q135.398 241.359 138.477 236.656Q141.555 231.954 144.749 227.329Q147.944 222.704 151.252 218.16Q154.56 213.616 157.98 209.155Q161.399 204.695 164.929 200.32Q168.459 195.946 172.096 191.661Q175.733 187.376 179.475 183.182Q186.711 175.024 194.37 167.263Q202.029 159.501 210.09 152.158Q218.151 144.815 226.591 137.911Q235.031 131.007 243.826 124.561C316.91 69.9462 400.245 41.9448 491.038 36.7162Z"/>
	<path fill="#F2FCEE" transform="scale(3.98145 3.98145)" d="M499.405 95.9517C500.297 96.1555 501.337 96.3338 502.17 96.7107C503.436 97.2839 504.08 98.8123 504.666 99.9947C506.603 103.906 508.004 108.171 509.737 112.187C513.589 121.113 517.947 129.987 523.106 138.235C534.08 155.778 549.753 169.409 563.137 184.987C586.038 211.643 599.285 237.509 614.126 268.949C617.242 265.164 619.899 264.31 624.525 263.34C630.905 256.476 654.536 230.705 663.115 231.01C665.04 231.079 666.453 232.797 667.712 234.059C674.693 228.754 681.803 222.602 689.553 218.507C692.189 217.113 695.924 215.53 698.897 216.729C700.445 217.354 701.094 219.137 701.782 220.537C708.117 217.631 723.799 208.42 730.405 210.466C731.518 210.811 731.796 211.502 732.338 212.451C732.841 213.333 733.079 213.857 733.979 214.399C744.243 212.199 754.45 209.787 764.74 207.706C776.649 205.298 788.702 203.231 800.434 200.062C807.175 198.24 813.813 195.834 820.425 193.592C819.41 199.26 817.708 204.906 816.373 210.514Q813.028 224.277 811.457 238.354C808.971 262.122 810.771 286.206 807.709 309.848C805.188 329.315 798.579 346.852 791.669 365.083C827.518 371.616 862.246 385.153 893.881 403.166C882.627 410.508 869.394 437.492 861.822 449.598Q852.458 464.486 842.097 478.699C809.573 522.941 760.374 562.187 704.835 570.534C661.519 577.043 614.461 564.78 579.142 538.863C587.349 553.277 595.52 567.869 605.042 581.466C610.49 589.246 617.125 596.335 622.255 604.291C625.114 608.726 627.426 613.354 626.101 618.748C625.089 622.87 622.268 626.982 618.571 629.135C615.319 631.029 610.851 631.951 607.175 630.952C604.539 630.236 602.538 628.838 600.589 626.966C589.509 616.319 565.45 578.265 557.692 564.532C551.734 576.581 546.248 588.92 540.497 601.077C537.27 607.9 534.196 615.164 529.984 621.44C527.484 625.166 524.354 628.31 519.751 629.073C515.62 629.758 511.358 628.41 508.112 625.827C504.393 622.869 503.194 620.03 502.59 615.465C504.145 602.78 512.1 591.463 517.626 580.122Q524.038 566.657 530.08 553.022C486.966 565.007 454.951 570.463 410.235 570.562C403.849 585.516 393.13 598.913 380.62 609.238C352.127 632.755 315.012 642.052 278.596 638.543C269.997 637.714 237.411 632.677 233.581 626.135C232.888 624.952 233.067 624.667 233.466 623.469C234.19 622.859 234.565 622.56 235.021 621.711C232.838 620.044 229.593 619.229 227.018 618.264C219.779 615.549 207.691 611.819 202.163 606.706C200.852 605.494 200.457 604.535 200.327 602.787C201.465 600.236 203.149 599.618 205.625 598.628C200.12 595.147 194.685 591.639 189.499 587.689C185.85 584.91 177.602 579.707 176.975 575.037C177.266 573.314 178.285 572.27 179.35 570.961C176.396 568.024 163.879 556.576 163.764 552.809C164.633 551.031 166.107 550.118 167.656 548.966C163.581 542.755 159.383 536.563 155.853 530.02C153.873 526.35 150.131 519.808 151.79 515.58C152.375 514.092 153.817 513.467 155.137 512.765C150.461 503.682 142.863 488.999 140.904 479.255C142.78 477.33 144.758 475.937 146.982 474.468C144.224 466.68 141.293 458.313 140.02 450.141C139.546 447.099 138.627 442.737 140.555 440.104C142.282 438.942 144.758 439.312 146.77 439.33C144.046 412.216 142.775 385.571 149.612 358.892C150.521 355.346 151.889 350.039 155.54 348.391C156.778 347.832 157.182 348.23 158.118 349.085C163.226 353.75 166.371 364.395 173.909 370.887C189.002 383.886 212.332 388.789 230.972 394.938C227.003 387.161 222.911 379.361 219.574 371.289C206.414 339.455 199.481 304.235 193.263 270.435C192.656 267.14 190.885 260.199 192.881 257.304C194.134 256.83 195.163 256.613 196.464 257.017C202.125 258.776 207.587 261.829 213.246 263.795C223.37 267.312 258.823 275.954 267.522 275.235C267.21 274.306 266.698 272.763 266.823 271.764C266.976 270.532 267.383 269.858 268.419 269.176C274.072 265.459 304.835 274.835 311.568 277.404L312.391 277.723L312.827 277.459C312.664 275.646 312.223 273.18 312.806 271.43C313.166 270.347 313.85 269.569 314.929 269.175C320.591 267.103 340.711 278.856 346.124 281.895L348.053 279.579C355.716 275.826 384.529 300.735 392.197 304.392C395.194 305.822 399.457 306.095 402.748 306.764C401.359 300.87 398.655 285.183 401.356 280.145C401.92 279.093 402.787 278.244 403.999 278.002C405.948 277.612 407.946 278.603 409.604 279.491C409.263 269.601 407.915 247.391 411.641 238.509C412.137 237.326 412.474 236.952 413.654 236.515C416.158 236.968 418.237 238.173 420.475 239.324C420.533 230.965 422.046 210.773 426.645 204.257C427.493 203.055 428.024 202.879 429.429 202.628C431.524 203.106 433.061 204.527 434.738 205.803C436.247 199.231 441.07 175.712 446.405 173.173C448.596 172.13 451.851 173.924 453.907 174.752C457.792 166.811 460.955 158.491 464.743 150.491C470.641 138.038 488.479 102.873 499.405 95.9517ZM498.368 114.525Q494.269 120.067 490.471 125.82Q486.673 131.572 483.187 137.519Q479.701 143.466 476.536 149.59Q473.372 155.714 470.538 161.998C467.701 168.19 461 189.774 457.798 192.689C457.267 193.172 457.197 193.166 456.642 193.433C453.97 193.538 451.942 192.03 449.722 190.698C448.541 193.852 447.552 196.966 446.823 200.257C445.819 204.789 444.573 220.859 440.633 222.94C437.733 222.726 434.977 220.638 432.642 219.029C432.255 223.385 431.833 227.761 431.774 232.135C431.692 238.196 434.012 251.554 429.947 256.251C429.281 257.021 428.599 257.029 427.656 256.915C425.051 256.598 422.157 254.156 420.017 252.693C420.066 260.588 422.078 284.651 420.119 290.607C419.071 291.59 418.229 291.914 416.766 291.824C414.938 291.712 413.111 291.172 411.348 290.71C412.392 303.475 414.488 316.214 416.876 328.789C425.486 374.117 442.029 413.485 478.05 444.016C495.055 458.43 518.987 470.479 541.422 472.659Q542.326 446.806 541.924 420.941C515.757 408.518 499.229 400.878 476.711 382.131C473.77 379.683 467.968 375.369 466.617 371.783C466.098 370.406 465.919 368.56 466.629 367.21C467.259 366.013 468.097 365.211 469.454 364.929C472.114 364.375 474.945 366.487 476.861 368.066C484.748 374.566 492.209 381.236 500.592 387.145C513.186 396.022 527.083 402.635 541.098 408.899C540.205 389.946 537.975 365.028 533.513 346.626C525.462 344.556 517.37 342.612 509.643 339.494C485.738 329.847 465.213 310.861 452.138 288.8C450.294 285.689 445.563 277.934 447.001 274.282C447.467 273.098 448.288 272.574 449.431 272.139C450.593 271.696 452.248 271.834 453.288 272.474C456.926 274.709 461.396 285.648 464.334 289.683C477.524 307.793 495.78 322.702 516.884 330.613C521.062 332.179 525.935 334.024 530.439 334.101L531.005 333.551L530.864 332.387C529.418 320.548 526.533 308.897 523.887 297.28Q519.788 278.766 515.176 260.373C499.578 254.169 482.84 244.234 475.872 228.034C474.828 225.608 474.505 222.339 475.466 219.836C475.739 219.126 476.18 218.611 476.683 218.056C477.973 217.617 478.578 217.453 479.874 218.012C484.35 219.942 488.82 230.127 492.987 234.245C498.469 239.661 505.108 243.726 511.883 247.308C508.195 232.821 488.791 155.099 495.3 145.075C495.879 144.183 497.31 143.703 498.337 143.622C499.772 143.509 500.876 143.926 501.95 144.892C503.179 145.998 503.776 147.994 504.096 149.552C505.162 154.752 504.914 160.279 505.662 165.546Q508.871 187.141 513.513 208.474C518.332 231.384 524.248 254.057 529.642 276.837C537.697 310.848 545.046 345.515 549.283 380.235C552.997 410.671 552.496 441.41 552.297 472.009C581.062 456.569 598.552 426.674 607.697 396.299C617.528 363.652 617.53 325.954 609.277 292.952C604.674 274.546 597.193 256.526 588.203 239.85Q584.701 233.419 580.858 227.185Q577.015 220.951 572.844 214.933Q568.672 208.914 564.183 203.128Q559.694 197.343 554.901 191.806C542.76 177.867 529.656 164.964 518.495 150.166C513.404 143.417 508.751 136.132 505.027 128.529C502.911 124.209 501.183 118.293 498.368 114.525ZM205.188 273.278C210.831 308.217 217.861 345.886 234.215 377.637C235.955 381.014 238.172 384.108 240.11 387.367C242.74 391.79 244.36 394.713 241.094 399.409C245.065 401.025 249.037 402.623 252.928 404.427L253.428 404.014C254.741 402.949 255.59 402.254 257.26 401.938C261.539 403.032 266.781 411.079 268.936 414.882C269.748 416.315 270.573 418.077 270.09 419.741C269.85 420.57 269.253 420.76 268.59 421.239C266.113 421.688 264.112 421.348 261.735 420.53C251.021 416.841 240.878 410.726 230.258 406.552C216.672 401.213 202.383 397.681 188.986 391.906C181.971 388.882 174.974 385.165 168.475 381.15C181.286 414.23 193.316 436.867 218.414 462.466C224.595 468.77 231.571 474.264 237.734 480.526C236.523 473.257 234.048 459.01 238.723 452.596C239.344 451.745 239.981 451.633 240.966 451.361C242.599 451.805 243.567 452.555 244.441 453.999C247.041 458.296 246.613 470.786 247.223 476.258C247.776 481.214 248.526 486.345 249.834 491.162C262.556 504.478 283.61 515.376 299.433 524.833C295.186 514.728 279.191 473.425 283.719 464.366C284.199 463.404 284.663 462.985 285.5 462.356C286.888 461.984 287.483 461.95 288.85 462.405C289.792 463.145 290.397 463.728 290.871 464.849C293.306 470.605 294.096 477.545 295.62 483.621C299.197 497.89 307.988 526.775 319.854 535.096C326.304 539.618 346.086 545.802 354.562 548.605C369.297 553.477 385.25 558.461 400.791 559.685Q400.303 557.474 399.76 555.276Q399.217 553.077 398.62 550.893Q398.023 548.709 397.371 546.541Q396.72 544.372 396.015 542.22Q395.309 540.068 394.551 537.935Q393.793 535.802 392.981 533.688Q392.17 531.573 391.307 529.48Q390.443 527.387 389.528 525.316Q388.612 523.245 387.646 521.197Q386.679 519.15 385.662 517.127Q384.645 515.104 383.578 513.107Q382.511 511.109 381.395 509.139Q380.278 507.17 379.113 505.228Q377.948 503.286 376.735 501.374Q375.522 499.462 374.262 497.581Q373.002 495.7 371.696 493.85Q370.389 492.001 369.037 490.185Q367.685 488.368 366.288 486.586Q364.891 484.804 363.451 483.057Q362.01 481.31 360.526 479.6Q359.043 477.889 357.517 476.216Q355.991 474.543 354.424 472.908Q352.858 471.274 351.251 469.679Q349.644 468.083 347.997 466.529Q346.351 464.974 344.667 463.46Q342.983 461.947 341.261 460.476Q339.54 459.005 337.782 457.577Q336.025 456.149 334.233 454.766Q332.44 453.382 330.614 452.044Q328.788 450.705 326.929 449.412Q325.07 448.119 323.179 446.873Q321.289 445.627 319.368 444.428C312.639 440.215 305.771 435.836 298.792 432.061C293.037 428.948 286.568 426.27 281.196 422.574C279.29 421.263 276.966 419.468 276.293 417.138C276.013 416.167 276.095 414.927 276.706 414.101C277.578 412.92 278.869 412.422 280.284 412.26C290.025 411.144 331.265 439.155 341.187 446.746C348.174 452.091 354.611 458.77 361.942 463.509C386.135 463.453 413.648 457.891 431.255 440.216L436.369 434.618C429.255 427.92 410.458 409.484 402.027 406.95C397.035 405.45 390.81 406.19 385.629 406.344Q375.03 406.614 364.492 407.783Q353.954 408.952 343.553 411.013C338.009 412.113 332.315 414.257 326.816 415.05C324.71 415.353 323.01 415.447 321.118 414.35C320.404 413.362 319.924 412.569 320.061 411.291C320.255 409.478 321.77 408.127 323.221 407.213C334.517 400.095 376.686 397.058 391.444 396.404C380.919 386.043 357.635 366.054 343.96 362.04C333.615 359.005 320.56 359.096 309.75 359.2Q301.243 359.294 292.749 359.782C288.135 360.087 269.021 363.203 266.151 360.4C265.385 359.651 264.999 359.141 264.658 358.101C264.934 356.581 265.45 355.878 266.767 355.035C276.583 348.752 317.789 350.527 330.505 351.076C310.288 338.401 287.741 328.051 265.811 318.721C256.611 314.807 246.312 311.839 237.555 307.116C234.778 305.618 232.237 304.056 231.195 300.947C231.41 299.699 231.473 299.186 232.554 298.348C235.222 296.278 239.603 296.817 242.625 297.567C249.96 299.385 257.311 303.242 264.29 306.16C295.009 319.002 324.114 333.592 351.831 352.046C350.442 344.766 345.293 324.848 347.798 318.139C348.785 317.275 348.984 317.191 350.275 316.944C351.967 317.355 352.85 318.047 353.72 319.52C357.548 326.007 361.82 351.911 363.339 360.334C371.16 366.743 379.694 372.242 387.521 378.68C397.546 386.925 407.289 395.564 417.119 404.042C424.75 410.624 433.217 419.827 442.558 423.757C438.626 414.524 433.132 406.13 428.515 397.245Q424.952 390.361 421.889 383.241Q418.825 376.121 416.277 368.8Q413.728 361.48 411.708 353.997Q409.687 346.513 408.205 338.905C407.378 334.691 406.842 322.368 402.157 320.758C400.334 320.131 397.721 320.555 395.81 320.675C383.002 311.702 371.535 300.957 356.983 294.64C356.073 295.327 356.075 295.572 355.633 296.592C355.139 297.732 354.808 298.411 353.792 299.185C352.477 299.426 352.063 299.455 350.778 298.945C346.91 297.407 343.214 294.476 339.758 292.178C334.453 288.651 329.172 285.21 323.449 282.385C323.506 285.404 323.755 288.244 322.145 290.935C320.762 291.792 319.057 291.196 317.507 290.838C307.688 288.573 298.365 284.432 288.459 282.387C289.014 284.14 289.381 285.46 289.27 287.306C288.557 288.577 288.517 288.819 287.009 289.195C283.268 290.128 277.194 288.523 273.339 287.928C259.602 285.808 245.995 283.422 232.47 280.182C223.411 278.012 214.31 275.054 205.188 273.278ZM751.838 373.228C737.929 373.736 724.085 374.958 710.53 378.279C677.386 386.399 645.762 406.959 622.651 431.789Q620.639 433.928 618.69 436.123Q616.74 438.318 614.855 440.569Q612.969 442.819 611.148 445.122Q609.327 447.425 607.573 449.78Q605.819 452.135 604.133 454.538Q602.448 456.942 600.831 459.393Q599.215 461.844 597.669 464.34Q596.124 466.837 594.65 469.376Q593.177 471.916 591.777 474.497Q590.377 477.077 589.051 479.697Q587.725 482.317 586.475 484.973Q585.225 487.63 584.052 490.321Q582.878 493.012 581.782 495.736Q580.686 498.46 579.668 501.214Q578.651 503.968 577.713 506.75Q576.774 509.532 575.916 512.34C625.913 493.774 674.227 470.856 724.54 453.029C740.517 447.368 756.802 441.585 773.319 437.668Q741.245 454.686 708.054 469.409C690.129 477.244 671.627 484.062 653.877 492.23C628.478 502.553 603.584 514.404 577.971 524.125C609.111 549.094 655.573 565.222 695.239 560.829C752.789 554.456 796.714 517.469 831.515 473.691C841.891 460.638 850.548 446.469 859.014 432.133C864.182 423.381 869.15 414.328 875.056 406.051C843.957 389.252 811.399 377.861 776.106 374.279C768.207 373.478 759.768 372.728 751.838 373.228ZM156.462 379.772C153.608 399.096 154.331 419.66 157.971 438.872C158.613 442.261 161.371 451.747 159.214 454.359L158.738 454.935C156.737 455.856 154.544 455.581 152.386 455.541C153.923 460.81 161.792 482.139 159.232 485.972C158.471 487.112 156.806 487.832 155.635 488.479C160.96 499.411 168.061 509.79 171.833 521.384C169.726 522.995 167.713 524.293 165.361 525.521C168.371 529.786 171.214 534.199 174.346 538.374C177.155 542.119 180.519 545.807 182.905 549.825C183.457 550.756 183.723 551.348 183.656 552.459C182.979 554.394 181.758 555.434 180.345 556.858C184.037 559.901 199.233 570.534 199.696 574.412C199.148 576.543 197.898 577.845 196.407 579.408C200.954 582.186 222.234 594.532 224.361 597.661C224.095 600.757 222.217 602.118 219.975 604.066C224.734 606.344 229.514 608.251 234.565 609.788C238.681 611.039 257.493 614.266 259.478 616.561C259.715 616.834 259.752 617.23 259.888 617.564C258.817 620.46 255.664 621.939 253.172 623.49C289.792 631.544 329.922 630.016 362.361 609.356C377.787 599.532 389.741 586.717 398.62 570.759C383.136 568.141 367.705 564.979 352.887 559.642C337.013 576.592 318.382 592.884 295.617 599.428C292.181 600.416 288.094 601.589 284.518 601.662C282.695 601.699 280.499 601.187 279.276 599.716C278.447 598.718 278.185 597.788 278.39 596.5C278.523 595.666 279.017 594.748 279.416 594.022C284.955 590.539 291.813 590.288 297.835 587.868C315.374 580.819 329.054 569.177 342.637 556.426C329.738 551.405 316.644 546.46 304.497 539.777C277.048 554.56 244.989 562.839 214.118 553.748C211.687 553.032 208.534 551.984 207.224 549.609C206.565 548.412 206.54 547.036 207.039 545.783C207.417 544.833 208.371 544.1 209.327 543.757C214.85 541.779 227.276 546.211 233.504 546.933C254.132 549.322 274.383 543.361 292.476 533.875C285.171 529.441 277.793 525.071 270.688 520.321C265.682 516.975 259.057 510.923 253.673 508.844C248.443 506.825 242.45 506.366 236.935 505.532C223.997 503.575 202.734 500.406 192.532 491.911C191.353 490.929 190.03 489.507 189.602 487.989C189.17 486.457 189.334 485.604 189.795 484.161C190.745 483.334 191.221 482.93 192.54 483.026C198.33 483.447 208.667 489.322 214.715 491.373C222.813 494.12 231.179 494.536 239.268 496.801C210.359 471.887 184.468 445.174 168.122 410.121Q165.216 403.973 162.771 397.627C161.365 393.922 158.534 382.08 156.462 379.772ZM803.487 209.614C785.441 214.231 767.243 218.119 749.158 222.553C741.315 224.475 733.458 227.548 725.569 229.016C724.667 229.184 723.747 229.145 722.907 228.722C721.028 227.777 720.512 225.288 720.11 223.42C720.077 223.265 720.052 223.109 720.023 222.954C711.123 226.175 701.86 234.919 694.527 237.601C693.227 238.076 692.635 237.941 691.378 237.465C690.413 236.054 690.251 234.765 690.605 233.108C690.729 232.525 690.9 231.953 691.071 231.383L690.603 231.189C683.684 235.052 677.859 240.136 671.774 245.146C669.253 247.221 666.686 249.678 663.84 251.274C662.717 251.904 661.878 252.094 660.573 252.051C659.52 251.514 658.954 251.344 658.57 250.103C658.323 249.305 658.469 248.094 658.452 247.251C658.442 246.748 658.42 246.245 658.406 245.742C647.968 254.091 639.093 263.902 630.153 273.792C626.529 277.8 622.509 281.78 619.299 286.122C625.034 309.861 628.038 336.699 625.575 361.072C632.493 351.263 638.78 340.933 646.345 331.593C652.205 324.361 659.913 317.977 664.988 310.254C665.026 303.811 663.929 278.16 668.727 274.439C669.593 273.767 670.607 273.74 671.6 274.155C673.057 274.763 673.939 276.027 674.293 277.525C676.005 284.782 674.578 294.911 674.27 302.432C699.605 277.345 725.222 256.228 758.115 241.855C763.115 239.67 770.201 235.94 775.653 236.031C776.878 236.052 777.701 236.402 778.734 237.016C779.686 238.21 779.934 239.11 779.768 240.649C779.599 242.2 779.075 243.325 777.785 244.278C777.246 244.676 776.68 245.033 776.114 245.39C767.22 249.2 758.174 252.862 749.556 257.27C725.129 269.763 705.738 287.057 685.924 305.749C693.333 304.178 700.724 302.55 708.239 301.566C717.303 300.378 744.757 298.604 752.159 303.115C753.566 303.973 754.297 304.916 754.684 306.541C754.459 307.883 753.994 308.691 752.901 309.502C750.939 310.959 748.258 311.407 745.875 311.515C739.643 311.795 733.282 310.548 727.016 310.562C706.014 310.611 678.737 315.51 662.549 329.526C654.495 336.499 647.503 346.983 641.814 355.965C668.111 345.631 689.028 348.191 714.708 359.376Q720.218 361.764 725.57 364.487Q739.109 362.906 752.735 362.506Q766.36 362.107 779.969 362.892C801.714 317.475 796.878 296.194 799.896 249.788Q800.739 236.64 802.517 223.585C803.171 219.041 804.321 214.572 804.724 209.997L804.345 209.44L803.487 209.614ZM438.816 449.907C416.999 465.209 396.946 472.128 370.652 474.747C386.512 494.889 397.837 516.414 406.723 540.416C425.501 540.669 443.659 539.642 462.281 537.171C485.431 533.49 510.937 528.788 532.584 519.59C510.098 500.194 486.021 482.475 461.908 465.153C456.189 461.045 445.112 452.285 438.816 449.907ZM668.303 360.207C653.566 361.753 635.959 368.4 626.45 380.339C620.645 387.626 618.632 397.861 615.589 406.532C612.646 414.915 609.44 423.664 605.369 431.565C612.082 423.766 620.033 417.399 627.721 410.613C651.036 391.281 678.081 375.034 707.676 367.59C695.765 363.435 681.101 358.144 668.303 360.207ZM537.354 482.725C547.834 527.63 566.776 560.891 592.447 598.677C596.044 603.971 603.111 616.26 608.17 619.698C609.112 620.338 610.114 620.668 611.254 620.504C612.31 620.352 613.618 619.689 614.514 619.131C615.22 617.366 615.545 616.243 615.416 614.335C612.692 608.532 607.329 603.194 603.345 598.163Q598.347 591.738 593.726 585.037C572.916 554.905 554.711 519.339 546.108 483.58C543.186 483.185 540.297 482.903 537.354 482.725ZM537.49 530.072C530.178 532.359 522.938 534.927 515.566 537.012C481.061 546.772 445.794 552.205 409.919 551.538L410.17 559.835L415.5 559.837C425.017 559.72 434.583 559.701 444.074 558.935C477.949 556.201 510.255 547.291 542.479 536.934C541.498 534.739 540.343 530.993 538.218 529.889L537.49 530.072ZM546.582 544.816C540.511 557.511 535.08 570.447 528.786 583.059C524.117 592.413 518.084 601.699 514.434 611.472C513.811 613.14 513.128 614.889 513.989 616.619C514.785 618.216 516.471 618.607 518.043 618.961C528.16 610.102 542.417 568.667 551.046 554.232C549.647 551.037 548.263 547.874 546.582 544.816ZM451.039 431.931L446.6 440.564L507.286 484.946C515.064 490.687 522.401 497.031 530.29 502.62L531.451 503.225C532.283 500.903 530.213 495.024 529.146 492.818C525.024 484.29 488.898 469.134 479.149 461.671C471.189 455.576 464.73 447.927 458.278 440.321C455.995 437.631 453.676 434.174 451.039 431.931ZM578.457 467.546C571.309 472.485 564.512 477.862 557.07 482.375C558.69 489.732 560.734 496.785 563.319 503.873C564.072 505.614 564.799 507.37 565.612 509.083C568.552 498.592 578.53 476.767 578.457 467.546Z"/>
</svg>
